<svg width="14" height="16" viewBox="0 0 14 16" fill="none" xmlns="http://www.w3.org/2000/svg">
<path d="M12.397 5.20888C12.5521 5.20888 12.6928 5.27655 12.804 5.39088C12.9076 5.51299 12.9598 5.66465 12.9447 5.82488C12.9447 5.87776 12.5302 11.1199 12.2934 13.3265C12.1452 14.6806 11.2722 15.5027 9.96286 15.5252C8.95605 15.5478 7.97194 15.5556 7.00295 15.5556C5.97421 15.5556 4.96815 15.5478 3.9916 15.5252C2.7261 15.4949 1.85242 14.658 1.71172 13.3265C1.46815 11.1122 1.0612 5.87776 1.05363 5.82488C1.04607 5.66465 1.0975 5.51299 1.20189 5.39088C1.30477 5.27655 1.45303 5.20888 1.60885 5.20888H12.397ZM8.6059 0C9.2935 0 9.90772 0.479884 10.0855 1.16432L10.2126 1.73209C10.3154 2.19487 10.7163 2.52231 11.1778 2.52231H13.4455C13.7481 2.52231 14 2.77353 14 3.09319V3.38874C14 3.70063 13.7481 3.95963 13.4455 3.95963H0.555219C0.251891 3.95963 0 3.70063 0 3.38874V3.09319C0 2.77353 0.251891 2.52231 0.555219 2.52231H2.823C3.28366 2.52231 3.68457 2.19487 3.7882 1.73287L3.90696 1.20243C4.09153 0.479884 4.69894 0 5.3941 0H8.6059Z" fill="#F0F8FF"/>
</svg>
