<svg width="272" height="118" viewBox="0 0 272 118" fill="none" xmlns="http://www.w3.org/2000/svg">
<mask id="mask0_48_376" style="mask-type:alpha" maskUnits="userSpaceOnUse" x="0" y="0" width="272" height="118">
<rect width="272" height="118" fill="#D9D9D9"/>
</mask>
<g mask="url(#mask0_48_376)">
<path d="M259.693 115.856C259.693 116.036 259.547 116.182 259.367 116.182H4V115.531H259.367C259.547 115.531 259.693 115.676 259.693 115.856Z" fill="#E6E6E6"/>
<path d="M87.9661 36.8295C93.2959 36.8295 97.6166 32.5087 97.6166 27.1789C97.6166 21.849 93.2959 17.5283 87.9661 17.5283C82.6362 17.5283 78.3155 21.849 78.3155 27.1789C78.3155 32.5087 82.6362 36.8295 87.9661 36.8295Z" fill="#FFB6B6"/>
<path d="M93.08 38.8657L80.3772 42.4951L78.5626 46.5781L74.4796 66.0858V96.9353C74.4796 96.9353 69.4892 107.823 72.2112 117.35C75.1208 127.534 85.3676 115.514 93.08 116.886C100.792 118.258 113.041 119.619 113.041 119.619L105.783 86.5009L103.968 46.1244L93.08 38.8657Z" fill="#E6E6E6"/>
<path d="M90.6827 30.3392L88.7207 29.3582C88.7207 29.3582 88.2302 24.9435 87.2491 23.9625C86.2681 22.9815 86.2681 22.491 86.2681 22.491L87.7397 20.5289C87.7397 20.5289 80.382 24.453 78.9104 22.0005C77.4389 19.5479 79.4009 18.5669 79.4009 18.5669L76.9484 16.6048C76.9484 16.6048 79.8914 18.5669 80.382 17.0953C80.8725 15.6238 83.8155 14.6254 83.8155 14.6254C83.8155 14.6254 90.2424 16.0795 89.7268 14.6254C89.2112 13.1712 91.1732 14.6428 91.6638 15.1333C92.1543 15.6238 96.5689 20.5289 97.0594 20.0384C97.5499 19.5479 100.002 21.0194 99.512 21.51C99.0215 22.0005 99.0215 22.491 99.512 22.9815C100.002 23.472 102.946 28.8677 100.493 30.8297C98.0404 32.7918 94.6068 35.2443 95.0974 37.2064C95.5879 39.1684 95.0974 30.8297 90.6827 30.3392Z" fill="#2F2E41"/>
<path d="M43.1101 54.6368C40.6331 52.5016 39.7271 49.4928 41.0862 47.9166C42.4453 46.3405 45.5545 46.794 48.0321 48.9304C49.0335 49.7702 49.8192 50.8376 50.3235 52.0433L60.7042 61.2229L56.2926 66.0024L46.5275 56.4455C45.2602 56.1242 44.0884 55.504 43.1101 54.6368Z" fill="#FFB6B6"/>
<path d="M78.6714 46.7342L85.5093 46.1125L91.506 74.7119C92.6486 80.1615 89.0764 85.4819 83.5999 86.4871L78.6714 87.3918L47.2594 59.7345L51.8487 52.084L75.0136 66.6151L78.6714 46.7342Z" fill="#E6E6E6"/>
<path d="M55.4008 103.416C55.4008 103.416 52.6245 114.513 52.9046 114.043C53.1847 113.572 60.1399 114.203 60.1399 114.203L61.4143 103.487L55.4008 103.416Z" fill="#FFB6B6"/>
<path d="M103.694 101.55C91.4379 103.272 80.3675 101.771 71.3472 94.698C71.3472 94.698 64.7616 116.779 76.7706 119.104C88.7797 121.428 102.145 117.433 103.694 113.559C105.244 109.685 103.694 101.55 103.694 101.55Z" fill="#2F2E41"/>
<path d="M80.8382 108.523L67.4733 140.023L61.2751 176.437L69.4102 178.374L83.9617 144.865L103.694 112.784L80.8382 108.523Z" fill="#2F2E41"/>
<path d="M79.095 99.5404C79.095 99.5404 75.9958 75.5222 70.185 73.9727C67.3522 73.2173 64.7035 73.2904 62.7327 73.5639C60.7463 73.8395 59.1628 75.3571 58.8154 77.3322L53.5349 107.361H61.002L63.4057 99.2256L69.7976 110.387L79.095 99.5404Z" fill="#2F2E41"/>
<path d="M60.1129 111.162L52.7296 110.387L51.5903 114.649C51.5903 114.649 39.5812 125.495 45.7795 126.27C51.9777 127.045 57.7885 122.784 57.7885 122.784L66.3149 117.893C66.3149 117.893 63.0183 109.104 60.694 109.104C58.3696 109.104 60.1129 111.162 60.1129 111.162Z" fill="#2F2E41"/>
<path d="M101.371 125.153C100.481 128.206 98.1836 130.221 96.2406 129.654C94.2977 129.088 93.4447 126.153 94.3357 123.099C94.6748 121.874 95.3024 120.748 96.1659 119.816L100.101 106.927L106.11 108.903L101.593 121.399C101.82 122.65 101.743 123.937 101.371 125.153Z" fill="#FFB6B6"/>
<path d="M105.53 46.1801L102.397 45.2964C99.4422 51.1748 98.1717 57.756 98.7259 64.3117L100.272 82.6044L95.1699 114.757L105.171 117.344L113.052 76.9943L105.53 46.1801Z" fill="#E6E6E6"/>
<path d="M44.5316 96.4505C44.3944 96.0306 43.3544 96.2154 43.2546 95.8399C43.1551 95.4657 44.153 95.1519 44.9183 94.0974C45.0564 93.9073 45.9261 92.7089 45.5925 92.2048C44.9602 91.2494 40.561 93.6289 39.5051 92.2936C39.2733 92.0006 39.178 91.4975 38.4876 90.5612C38.2129 90.1888 38.0367 90.009 37.8262 90.0143C37.5275 90.0218 37.4206 90.3955 36.9511 91.0725C36.247 92.0877 35.9929 91.9603 35.529 92.7921C35.1847 93.4096 35.1439 93.8042 34.8956 93.8274C34.5442 93.8603 34.399 93.0915 33.9696 93.0617C33.5315 93.0313 33.0931 93.7909 32.8757 94.3844C32.4679 95.4982 32.7204 96.3495 32.7764 97.198C32.8373 98.12 32.6944 99.4696 31.6926 101.202L22.2435 116.257C24.2728 113.188 30.0332 104.819 32.354 101.749C33.024 100.863 33.7439 99.9729 34.8521 99.8055C35.919 99.6443 37.2172 100.172 39.0291 100.141C39.2407 100.138 39.8296 100.12 39.9729 99.8082C40.0913 99.5501 39.7973 99.3258 39.9042 99.0832C40.0477 98.7578 40.6933 98.8974 41.573 98.6813C42.1934 98.5289 42.6148 98.2772 42.9773 98.0607C43.0865 97.9954 44.7142 97.0094 44.5316 96.4505Z" fill="#F2F2F2"/>
<path d="M19.7827 99.9655C19.5371 99.9117 19.3277 100.475 19.1146 100.416C18.9022 100.357 19.0362 99.7767 18.7394 99.0968C18.6859 98.9742 18.3487 98.2015 18.0051 98.2198C17.3537 98.2545 17.2523 101.1 16.2922 101.233C16.0815 101.262 15.8071 101.164 15.1484 101.233C14.8863 101.26 14.7472 101.295 14.6891 101.4C14.6066 101.548 14.7592 101.709 14.956 102.134C15.2511 102.773 15.1152 102.861 15.3896 103.328C15.5934 103.676 15.7752 103.81 15.715 103.938C15.6298 104.12 15.2106 103.969 15.072 104.172C14.9307 104.378 15.177 104.812 15.4056 105.09C15.8346 105.612 16.3253 105.733 16.7579 105.951C17.2279 106.187 17.8491 106.646 18.4103 107.638L23.0729 116.619C22.1521 114.738 19.7066 109.496 18.8696 107.471C18.628 106.887 18.399 106.276 18.6366 105.684C18.8653 105.114 19.4989 104.629 20.0066 103.731C20.0659 103.626 20.2273 103.332 20.1154 103.172C20.0229 103.039 19.828 103.119 19.7398 102.996C19.6215 102.832 19.8762 102.555 20.024 102.061C20.1282 101.713 20.1263 101.433 20.1246 101.193C20.124 101.121 20.1098 100.037 19.7827 99.9655Z" fill="#F2F2F2"/>
<path d="M24.4344 102.157L24.5809 100.803L24.6708 100.718C25.0867 100.325 25.3468 99.909 25.4444 99.4804C25.46 99.4123 25.472 99.3434 25.4843 99.2732C25.533 98.995 25.5934 98.6491 25.8609 98.2899C26.0106 98.0898 26.4065 97.6374 26.8149 97.7954C26.9252 97.8367 26.9996 97.9082 27.0513 97.9839C27.0642 97.9708 27.0775 97.9577 27.0917 97.9435C27.2681 97.772 27.3916 97.7092 27.5104 97.6487C27.6018 97.6022 27.6961 97.5543 27.8557 97.4267C27.9258 97.3707 27.9818 97.3203 28.0291 97.278C28.1724 97.15 28.3557 97.0002 28.6068 97.0595C28.8729 97.1323 28.9642 97.3862 29.0247 97.5542C29.1328 97.854 29.1661 98.0602 29.1882 98.1969C29.1961 98.2469 29.2053 98.3031 29.2123 98.3214C29.2705 98.4682 30.0018 98.5062 30.2769 98.5221C30.8954 98.5556 31.4306 98.5847 31.5593 99.0082C31.6517 99.3111 31.4592 99.6416 30.9708 100.016C30.8186 100.133 30.6665 100.214 30.534 100.274C30.6155 100.351 30.6804 100.456 30.6844 100.598C30.6934 100.936 30.3468 101.195 29.6544 101.37C29.4823 101.414 29.2509 101.472 28.948 101.458C28.8054 101.451 28.6805 101.429 28.5739 101.408C28.5581 101.469 28.5289 101.532 28.4764 101.592C28.3223 101.768 28.0734 101.813 27.7356 101.714C27.3627 101.61 27.068 101.469 26.808 101.344C26.5808 101.236 26.385 101.144 26.2207 101.118C25.9151 101.076 25.6301 101.264 25.289 101.515L24.4344 102.157Z" fill="#F2F2F2"/>
<path d="M26.8734 94.4498L25.5274 94.6513L25.4224 94.5859C24.9367 94.2833 24.468 94.1373 24.0286 94.1516C23.9588 94.1539 23.8891 94.1597 23.8181 94.1656C23.5366 94.1891 23.1867 94.2184 22.7714 94.0508C22.5398 93.9567 22.0019 93.6884 22.0511 93.2533C22.0631 93.1362 22.1134 93.0461 22.1735 92.9769C22.1575 92.9677 22.1415 92.9582 22.1241 92.948C21.9135 92.8209 21.8215 92.7174 21.7328 92.6178C21.6646 92.5412 21.5944 92.4621 21.4304 92.3401C21.3585 92.2866 21.2955 92.2451 21.2426 92.2101C21.0825 92.104 20.8911 91.9647 20.8848 91.7068C20.8877 91.4309 21.1101 91.2782 21.2573 91.177C21.5199 90.9964 21.7109 90.9119 21.8375 90.8559C21.8838 90.8355 21.9359 90.8124 21.9518 90.801C22.0791 90.7074 21.9303 89.9904 21.8759 89.7202C21.7515 89.1134 21.6438 88.5884 22.0208 88.3565C22.2905 88.1903 22.6589 88.2927 23.1454 88.67C23.2968 88.7876 23.4132 88.9144 23.505 89.0273C23.5589 88.9289 23.6438 88.8395 23.7809 88.7995C24.1054 88.7051 24.4442 88.9746 24.7889 89.6C24.875 89.7553 24.9899 89.9644 25.0525 90.2611C25.0819 90.4008 25.0924 90.5272 25.0997 90.6354C25.1625 90.6354 25.2309 90.6476 25.3021 90.6832C25.5118 90.7875 25.6184 91.0169 25.6079 91.3689C25.6019 91.756 25.54 92.0769 25.4858 92.3599C25.4387 92.607 25.3989 92.8199 25.4161 92.9853C25.4523 93.2918 25.7071 93.5196 26.0365 93.7858L26.8734 94.4498Z" fill="#F2F2F2"/>
<path d="M27.0549 90.4075L27.2014 89.0544L27.2913 88.9694C27.7072 88.5764 27.9674 88.16 28.0649 87.7314C28.0805 87.6633 28.0925 87.5943 28.1048 87.5242C28.1535 87.246 28.2139 86.9001 28.4814 86.5409C28.6311 86.3407 29.0271 85.8884 29.4355 86.0464C29.5457 86.0877 29.6201 86.1592 29.6718 86.2349C29.6847 86.2218 29.698 86.2087 29.7123 86.1944C29.8887 86.023 30.0121 85.9602 30.131 85.8997C30.2223 85.8532 30.3166 85.8053 30.4762 85.6776C30.5463 85.6217 30.6023 85.5713 30.6496 85.5289C30.7929 85.401 30.9762 85.2512 31.2273 85.3105C31.4934 85.3832 31.5847 85.6371 31.6452 85.8052C31.7533 86.105 31.7866 86.3112 31.8087 86.4479C31.8166 86.4979 31.8258 86.5541 31.8328 86.5724C31.891 86.7192 32.6223 86.7572 32.8975 86.773C33.516 86.8066 34.0511 86.8356 34.1799 87.2591C34.2722 87.5621 34.0797 87.8926 33.5913 88.2674C33.4391 88.384 33.287 88.4645 33.1545 88.5247C33.236 88.6017 33.301 88.7065 33.3049 88.8493C33.3139 89.1872 32.9673 89.4465 32.2749 89.6213C32.1028 89.6652 31.8714 89.7233 31.5685 89.7086C31.4259 89.7016 31.301 89.6797 31.1945 89.6593C31.1786 89.72 31.1494 89.7831 31.0969 89.843C30.9428 90.0194 30.694 90.0643 30.3561 89.9648C29.9832 89.8609 29.6885 89.7196 29.4285 89.5953C29.2014 89.4871 29.0055 89.3946 28.8412 89.3693C28.5356 89.3266 28.2506 89.5153 27.9095 89.7664L27.0549 90.4075Z" fill="#F2F2F2"/>
<path d="M22.6902 116.333L22.4523 116.098L22.1215 116.063C22.123 116.032 22.1209 115.959 22.1185 115.846C22.1057 115.223 22.0662 113.329 22.33 110.418C22.5142 108.386 22.822 106.324 23.2449 104.287C23.6685 102.247 24.1081 100.729 24.4611 99.5087C24.7276 98.5885 24.9966 97.7157 25.2591 96.8656C25.9598 94.5942 26.6213 92.4486 27.031 90.0012C27.1228 89.4549 27.3132 88.3177 26.9233 86.9754C26.6971 86.197 26.3099 85.4642 25.7719 84.7982L26.2926 84.3777C26.8862 85.1137 27.3145 85.9252 27.5657 86.7895C27.9979 88.2777 27.7905 89.5169 27.6908 90.1123C27.2738 92.6028 26.6056 94.769 25.8981 97.0623C25.6369 97.9094 25.3688 98.7783 25.1035 99.6948C24.7536 100.904 24.318 102.408 23.8999 104.422C23.4818 106.435 23.1779 108.472 22.9958 110.478C22.7355 113.352 22.7746 115.219 22.7874 115.832C22.794 116.159 22.7954 116.228 22.6902 116.333Z" fill="#F2F2F2"/>
<path d="M24.3435 85.5686C24.3167 85.5626 24.2898 85.556 24.2628 85.5479C23.7136 85.394 23.2731 84.9465 22.9531 84.218C22.8034 83.8754 22.768 83.5149 22.6975 82.7959C22.6864 82.6851 22.6376 82.1241 22.6977 81.3807C22.7367 80.8949 22.789 80.6998 22.9212 80.5466C23.068 80.376 23.2658 80.2782 23.4748 80.2291C23.4804 80.1648 23.5015 80.1019 23.5432 80.0423C23.7151 79.795 24.0029 79.8966 24.1591 79.9495C24.2378 79.9778 24.3358 80.0137 24.4461 80.0323C24.6194 80.0622 24.7229 80.0318 24.8796 79.9864C25.0295 79.9429 25.2158 79.8888 25.4734 79.8934C25.9818 79.9004 26.3581 80.1288 26.4821 80.204C27.1356 80.5967 27.3613 81.2231 27.6224 81.9485C27.6743 82.0939 27.8464 82.6194 27.8865 83.2962C27.9155 83.7844 27.8515 83.9843 27.7781 84.1272C27.6283 84.421 27.3989 84.5571 26.8294 84.8437C26.2345 85.1439 25.936 85.2941 25.6913 85.3714C25.1218 85.5502 24.7642 85.6624 24.3435 85.5686Z" fill="#F2F2F2"/>
<path d="M177.06 28.9312C177.06 28.9312 180.754 31.0978 179.542 33.2404C178.331 35.3831 176.642 38.3016 177.788 39.2207C178.934 40.1399 180.825 44.1925 180.825 44.1925C180.825 44.1925 188.901 43.0646 188.143 49.3374C187.385 55.6103 183.591 56.4655 186.843 59.225C190.094 61.9846 183.463 65.285 183.463 65.285C183.463 65.285 178.885 63.8585 177.841 59.4716C176.797 55.0848 178.772 62.8259 178.109 63.381C177.447 63.936 174.874 67.5946 173.054 62.7303C171.234 57.866 173.036 55.98 170.631 53.1092C168.226 50.2383 166.591 45.5948 166.662 44.7831C166.734 43.9714 163.911 36.5645 168.256 33.6759C172.601 30.7873 177.06 28.9312 177.06 28.9312Z" fill="#2F2E41"/>
<path d="M213.45 96.992C215.595 98.7673 218.249 99.0995 219.379 97.7342C220.508 96.369 219.685 93.8236 217.539 92.048C216.692 91.327 215.684 90.8194 214.6 90.5678L205.417 83.1609L202.033 87.5444L211.445 94.3809C211.895 95.3989 212.583 96.2943 213.45 96.992Z" fill="#FFB6B6"/>
<path d="M185.927 56.5965C185.927 56.5965 178.72 51.7769 176.36 54.1402C174 56.5035 174.564 62.4063 174.564 62.4063L193.463 84.4318L208.449 93.9575L212.467 87.6653L199.868 76.4229L185.927 56.5965Z" fill="#3F3D56"/>
<path d="M175.363 46.1565L177.978 55.4508H163.626L168.352 43.9988L175.363 46.1565Z" fill="#FFB6B6"/>
<path opacity="0.1" d="M175.363 46.1565L177.978 55.4508H163.626L168.352 43.9988L175.363 46.1565Z" fill="black"/>
<path d="M144.065 114.779C143.879 117.557 145.163 119.904 146.931 120.022C148.699 120.14 150.282 117.983 150.467 115.204C150.556 114.095 150.378 112.98 149.948 111.954L150.584 100.173L145.05 99.9924L145.01 111.626C144.447 112.586 144.123 113.667 144.065 114.779Z" fill="#FFB6B6"/>
<path d="M160.731 68.8276C160.731 68.8276 160.425 60.1632 157.127 59.6313C153.83 59.0994 149.372 63.0092 149.372 63.0092L142.561 91.221L143.6 108.948L151.054 108.527L152.804 91.732L160.731 68.8276Z" fill="#3F3D56"/>
<path d="M200.703 101.866C200.703 101.866 203.48 112.964 203.199 112.493C202.919 112.022 195.964 112.653 195.964 112.653L194.69 101.937L200.703 101.866Z" fill="#FFB6B6"/>
<path d="M179.14 52.3516H165.6L150.86 62.4237L146.599 97.6761L148.923 104.649L153.185 112.784C153.185 112.784 148.923 94.9644 159.383 101.937C169.842 108.91 170.617 110.073 170.617 110.073L184.563 103.1L189.793 74.2391L185.919 58.3561L179.14 52.3516Z" fill="#3F3D56"/>
<path d="M152.41 100.001C164.666 101.722 175.737 100.221 184.757 93.1487C184.757 93.1487 191.343 115.23 179.334 117.554C167.324 119.879 153.96 115.884 152.41 112.01C150.86 108.136 152.41 100.001 152.41 100.001Z" fill="#2F2E41"/>
<path d="M175.266 106.973L188.631 138.473L194.829 174.888L186.694 176.825L172.142 143.315L152.41 111.235L175.266 106.973Z" fill="#2F2E41"/>
<path d="M177.009 97.9911C177.009 97.9911 180.108 73.9729 185.919 72.4234C188.752 71.6679 191.401 71.7411 193.372 72.0146C195.358 72.2901 196.941 73.8078 197.289 75.7829L202.569 105.811H195.102L192.698 97.6763L186.307 108.838L177.009 97.9911Z" fill="#2F2E41"/>
<path d="M195.991 109.612L203.375 108.838L204.514 113.099C204.514 113.099 216.523 123.946 210.325 124.721C204.126 125.495 198.316 121.234 198.316 121.234L189.789 116.343C189.789 116.343 193.086 107.554 195.41 107.554C197.735 107.554 195.991 109.612 195.991 109.612Z" fill="#2F2E41"/>
<path d="M171.953 48.1762C176.726 48.1762 180.596 44.3066 180.596 39.5333C180.596 34.7599 176.726 30.8904 171.953 30.8904C167.18 30.8904 163.31 34.7599 163.31 39.5333C163.31 44.3066 167.18 48.1762 171.953 48.1762Z" fill="#FFB6B6"/>
<path d="M175.266 29.882C175.266 29.882 176.707 33.9154 174.402 34.7796C172.097 35.6439 168.928 36.7963 169.216 38.2368C169.504 39.6773 168.352 43.9987 168.352 43.9987C168.352 43.9987 175.266 48.3202 170.657 52.6416C166.047 56.9631 162.59 55.1823 163.31 59.3858C164.03 63.5893 156.828 61.8607 156.828 61.8607C156.828 61.8607 154.235 57.8274 156.252 53.794C158.268 49.7607 154.811 56.9631 153.947 56.9631C153.083 56.9631 148.761 58.1155 150.49 53.2178C152.218 48.3202 154.811 48.0321 154.811 44.2868C154.811 40.5416 156.54 35.932 157.116 35.3558C157.692 34.7796 160.285 27.2891 165.471 27.8653C170.657 28.4415 175.266 29.882 175.266 29.882Z" fill="#2F2E41"/>
<path d="M140.014 100.001C127.757 101.722 116.687 100.221 107.666 93.1487C107.666 93.1487 101.081 115.23 113.09 117.554C125.099 119.879 138.464 115.884 140.014 112.01C141.563 108.136 140.014 100.001 140.014 100.001Z" fill="#2F2E41"/>
<path d="M117.158 106.973L103.793 138.473L97.5944 174.888L105.73 176.825L120.281 143.315L140.014 111.235L117.158 106.973Z" fill="#2F2E41"/>
<path d="M108.378 99.4858L105.383 133.572L110.721 170.123L119.057 169.455L122.561 133.091L131.434 96.488L108.378 99.4858Z" fill="#2F2E41"/>
<path d="M115.364 28.9312C115.364 28.9312 111.669 31.0978 112.881 33.2404C114.093 35.3831 115.782 38.3016 114.636 39.2207C113.49 40.1399 111.598 44.1925 111.598 44.1925C111.598 44.1925 103.523 43.0646 104.281 49.3374C105.039 55.6103 108.833 56.4655 105.581 59.225C102.329 61.9846 108.96 65.285 108.96 65.285C108.96 65.285 113.538 63.8585 114.582 59.4716C115.627 55.0848 113.651 62.8259 114.314 63.381C114.977 63.936 117.549 67.5946 119.369 62.7303C121.19 57.866 119.387 55.98 121.792 53.1092C124.197 50.2383 125.833 45.5948 125.761 44.7831C125.689 43.9714 128.512 36.5645 124.167 33.6759C119.822 30.7873 115.364 28.9312 115.364 28.9312Z" fill="#2F2E41"/>
<path d="M117.061 46.1565L114.446 55.4508H128.798L124.072 43.9988L117.061 46.1565Z" fill="#A0616A"/>
<path opacity="0.1" d="M117.061 46.1565L114.446 55.4508H128.798L124.072 43.9988L117.061 46.1565Z" fill="black"/>
<path d="M148.359 114.779C148.544 117.557 147.261 119.904 145.493 120.022C143.725 120.14 142.142 117.983 141.957 115.204C141.868 114.095 142.046 112.98 142.475 111.954L141.839 100.173L147.374 99.9924L147.414 111.626C147.976 112.586 148.3 113.667 148.359 114.779Z" fill="#A0616A"/>
<path d="M131.693 68.8276C131.693 68.8276 131.999 60.1632 135.296 59.6313C138.593 59.0994 143.051 63.0092 143.051 63.0092L149.862 91.221L148.823 108.948L141.369 108.527L139.619 91.732L131.693 68.8276Z" fill="#6C63FF"/>
<path d="M113.284 52.3516H126.824L141.563 62.4237L145.824 97.6761L143.5 104.649L139.239 112.784C139.239 112.784 143.5 94.9644 133.04 101.937C132.936 102.007 132.832 102.076 132.73 102.145C125.997 106.642 117.112 106.18 110.88 101.012L105.923 96.9014L108.635 83.3427L106.504 58.3561L113.284 52.3516Z" fill="#6C63FF"/>
<path d="M79.4022 96.4868C77.2305 98.2292 74.5711 98.521 73.4625 97.1387C72.3538 95.7565 73.2158 93.2239 75.3885 91.4812C76.2468 90.7731 77.2623 90.2809 78.3498 90.0458L87.6447 82.7793L90.9616 87.2138L81.4464 93.9064C80.9809 94.9174 80.2799 95.8023 79.4022 96.4868Z" fill="#A0616A"/>
<path d="M107.536 56.5143C107.536 56.5143 114.815 51.8048 117.139 54.2037C119.463 56.6026 118.809 62.4962 118.809 62.4962L99.5778 84.2318L84.4488 93.5287L80.5265 87.1761L93.2949 76.1265L107.536 56.5143Z" fill="#6C63FF"/>
<path d="M120.47 48.1762C125.244 48.1762 129.113 44.3066 129.113 39.5333C129.113 34.7599 125.244 30.8904 120.47 30.8904C115.697 30.8904 111.828 34.7599 111.828 39.5333C111.828 44.3066 115.697 48.1762 120.47 48.1762Z" fill="#A0616A"/>
<path d="M116.168 33.74C116.168 33.74 114.894 29.4956 117.017 29.4956C119.139 29.4956 127.628 29.92 128.476 30.7689C129.325 31.6178 139.37 40.1372 133.428 46.9281C127.486 53.7191 133.428 57.0003 133.428 57.0003C133.428 57.0003 137.814 67.2702 133.57 68.1191C129.325 68.968 111.915 64.1141 116.168 56.2349C120.782 47.6844 122.93 34.1886 116.168 33.74Z" fill="#2F2E41"/>
<path d="M257.596 96.8374C257.459 96.4176 256.419 96.6024 256.319 96.2269C256.219 95.8527 257.217 95.5389 257.983 94.4844C258.121 94.2942 258.99 93.0958 258.657 92.5918C258.024 91.6364 253.625 94.0159 252.569 92.6806C252.338 92.3876 252.242 91.8845 251.552 90.9482C251.277 90.5757 251.101 90.3959 250.89 90.4012C250.592 90.4088 250.485 90.7825 250.015 91.4595C249.311 92.4747 249.057 92.3472 248.593 93.1791C248.249 93.7966 248.208 94.1911 247.96 94.2144C247.608 94.2473 247.463 93.4785 247.034 93.4486C246.596 93.4182 246.157 94.1779 245.94 94.7714C245.532 95.8852 245.785 96.7365 245.841 97.5849C245.901 98.5069 245.759 99.8566 244.757 101.589L235.308 116.644C237.337 113.575 243.097 105.206 245.418 102.136C246.088 101.25 246.808 100.36 247.916 100.192C248.983 100.031 250.281 100.559 252.093 100.528C252.305 100.525 252.894 100.507 253.037 100.195C253.156 99.9371 252.861 99.7127 252.968 99.4702C253.112 99.1448 253.757 99.2844 254.637 99.0683C255.258 98.9159 255.679 98.6642 256.041 98.4476C256.151 98.3824 257.778 97.3964 257.596 96.8374Z" fill="#F2F2F2"/>
<path d="M232.847 100.353C232.601 100.299 232.392 100.863 232.179 100.803C231.966 100.744 232.1 100.164 231.804 99.484C231.75 99.3614 231.413 98.5887 231.069 98.607C230.418 98.6417 230.317 101.487 229.356 101.62C229.146 101.65 228.871 101.551 228.213 101.62C227.951 101.647 227.811 101.682 227.753 101.787C227.671 101.936 227.823 102.096 228.02 102.522C228.315 103.16 228.179 103.248 228.454 103.716C228.658 104.063 228.84 104.197 228.779 104.325C228.694 104.507 228.275 104.357 228.136 104.559C227.995 104.765 228.241 105.199 228.47 105.477C228.899 105.999 229.39 106.121 229.822 106.338C230.292 106.574 230.913 107.034 231.475 108.025L236.137 117.007C235.216 115.125 232.771 109.883 231.934 107.858C231.692 107.274 231.463 106.664 231.701 106.071C231.93 105.501 232.563 105.016 233.071 104.118C233.13 104.013 233.292 103.719 233.18 103.559C233.087 103.426 232.892 103.506 232.804 103.383C232.686 103.219 232.94 102.943 233.088 102.448C233.192 102.1 233.19 101.821 233.189 101.58C233.188 101.508 233.174 100.424 232.847 100.353Z" fill="#F2F2F2"/>
<path d="M237.499 102.544L237.645 101.191L237.735 101.106C238.151 100.713 238.411 100.296 238.509 99.8676C238.524 99.7995 238.536 99.7306 238.549 99.6604C238.597 99.3822 238.658 99.0363 238.925 98.6771C239.075 98.477 239.471 98.0246 239.879 98.1826C239.989 98.2239 240.064 98.2954 240.115 98.3712C240.128 98.358 240.142 98.3449 240.156 98.3307C240.332 98.1592 240.456 98.0964 240.575 98.036C240.666 97.9894 240.76 97.9415 240.92 97.8139C240.99 97.7579 241.046 97.7075 241.093 97.6652C241.237 97.5372 241.42 97.3874 241.671 97.4467C241.937 97.5195 242.028 97.7734 242.089 97.9414C242.197 98.2412 242.23 98.4474 242.252 98.5841C242.26 98.6341 242.27 98.6903 242.276 98.7086C242.335 98.8554 243.066 98.8934 243.341 98.9093C243.96 98.9428 244.495 98.9719 244.624 99.3954C244.716 99.6983 244.523 100.029 244.035 100.404C243.883 100.52 243.731 100.601 243.598 100.661C243.68 100.738 243.745 100.843 243.749 100.986C243.758 101.323 243.411 101.583 242.719 101.757C242.547 101.801 242.315 101.86 242.012 101.845C241.87 101.838 241.745 101.816 241.638 101.796C241.622 101.856 241.593 101.919 241.541 101.979C241.387 102.156 241.138 102.2 240.8 102.101C240.427 101.997 240.132 101.856 239.872 101.732C239.645 101.623 239.449 101.531 239.285 101.506C238.979 101.463 238.694 101.651 238.353 101.903L237.499 102.544Z" fill="#F2F2F2"/>
<path d="M239.938 94.8368L238.592 95.0383L238.487 94.9729C238.001 94.6703 237.532 94.5243 237.093 94.5386C237.023 94.5408 236.953 94.5467 236.882 94.5526C236.601 94.5761 236.251 94.6053 235.836 94.4377C235.604 94.3437 235.066 94.0754 235.115 93.6403C235.127 93.5232 235.178 93.4331 235.238 93.3639C235.222 93.3547 235.206 93.3451 235.188 93.335C234.978 93.2078 234.886 93.1044 234.797 93.0047C234.729 92.9282 234.659 92.8491 234.495 92.7271C234.423 92.6735 234.36 92.6321 234.307 92.5971C234.147 92.491 233.955 92.3516 233.949 92.0937C233.952 91.8178 234.174 91.6652 234.322 91.564C234.584 91.3833 234.775 91.2988 234.902 91.2428C234.948 91.2225 235 91.1993 235.016 91.1879C235.143 91.0944 234.995 90.3774 234.94 90.1072C234.816 89.5004 234.708 88.9754 235.085 88.7434C235.355 88.5773 235.723 88.6796 236.21 89.057C236.361 89.1746 236.478 89.3013 236.569 89.4143C236.623 89.3159 236.708 89.2265 236.845 89.1864C237.17 89.0921 237.508 89.3615 237.853 89.9869C237.939 90.1422 238.054 90.3514 238.117 90.648C238.146 90.7878 238.157 90.9142 238.164 91.0224C238.227 91.0224 238.295 91.0345 238.366 91.0701C238.576 91.1745 238.683 91.4038 238.672 91.7558C238.666 92.1429 238.604 92.4638 238.55 92.7469C238.503 92.994 238.463 93.2069 238.48 93.3723C238.517 93.6787 238.771 93.9065 239.101 94.1728L239.938 94.8368Z" fill="#F2F2F2"/>
<path d="M240.119 90.7947L240.266 89.4416L240.356 89.3566C240.771 88.9636 241.032 88.5472 241.129 88.1186C241.145 88.0505 241.157 87.9816 241.169 87.9114C241.218 87.6332 241.278 87.2873 241.546 86.9281C241.695 86.7279 242.091 86.2756 242.5 86.4336C242.61 86.4749 242.684 86.5464 242.736 86.6221C242.749 86.609 242.762 86.5959 242.776 86.5816C242.953 86.4102 243.076 86.3474 243.195 86.2869C243.287 86.2404 243.381 86.1925 243.54 86.0648C243.611 86.0089 243.667 85.9585 243.714 85.9162C243.857 85.7882 244.04 85.6384 244.292 85.6977C244.558 85.7705 244.649 86.0243 244.709 86.1924C244.818 86.4922 244.851 86.6984 244.873 86.8351C244.881 86.8851 244.89 86.9413 244.897 86.9596C244.955 87.1064 245.687 87.1444 245.962 87.1603C246.58 87.1938 247.115 87.2229 247.244 87.6464C247.336 87.9493 247.144 88.2798 246.656 88.6546C246.503 88.7713 246.351 88.8517 246.219 88.9119C246.3 88.9889 246.365 89.0937 246.369 89.2365C246.378 89.5744 246.032 89.8337 245.339 90.0085C245.167 90.0524 244.936 90.1105 244.633 90.0958C244.49 90.0888 244.365 90.0669 244.259 90.0465C244.243 90.1072 244.214 90.1703 244.161 90.2302C244.007 90.4066 243.758 90.4515 243.42 90.352C243.047 90.2481 242.753 90.1068 242.493 89.9825C242.266 89.8743 242.07 89.7818 241.905 89.7565C241.6 89.7138 241.315 89.9025 240.974 90.1536L240.119 90.7947Z" fill="#F2F2F2"/>
<path d="M235.754 116.721L235.516 116.486L235.186 116.451C235.187 116.419 235.185 116.347 235.183 116.233C235.17 115.611 235.13 113.716 235.394 110.805C235.578 108.773 235.886 106.711 236.309 104.674C236.733 102.634 237.172 101.116 237.525 99.8959C237.792 98.9757 238.061 98.1029 238.323 97.2528C239.024 94.9814 239.686 92.8358 240.095 90.3884C240.187 89.8421 240.377 88.7049 239.988 87.3627C239.761 86.5842 239.374 85.8514 238.836 85.1854L239.357 84.7649C239.95 85.5009 240.379 86.3124 240.63 87.1767C241.062 88.6649 240.855 89.9041 240.755 90.4995C240.338 92.99 239.67 95.1562 238.962 97.4495C238.701 98.2966 238.433 99.1656 238.168 100.082C237.818 101.291 237.382 102.795 236.964 104.809C236.546 106.822 236.242 108.859 236.06 110.866C235.8 113.74 235.839 115.606 235.852 116.219C235.858 116.546 235.86 116.615 235.754 116.721Z" fill="#F2F2F2"/>
<path d="M237.408 85.9558C237.381 85.9499 237.354 85.9432 237.327 85.9351C236.778 85.7812 236.337 85.3337 236.017 84.6052C235.868 84.2627 235.832 83.9021 235.762 83.1831C235.751 83.0723 235.702 82.5113 235.762 81.7679C235.801 81.2822 235.853 81.087 235.985 80.9338C236.132 80.7632 236.33 80.6654 236.539 80.6164C236.545 80.552 236.566 80.4892 236.607 80.4295C236.779 80.1822 237.067 80.2838 237.223 80.3367C237.302 80.365 237.4 80.4009 237.51 80.4195C237.684 80.4494 237.787 80.419 237.944 80.3736C238.094 80.3301 238.28 80.276 238.538 80.2806C239.046 80.2876 239.422 80.516 239.546 80.5912C240.2 80.9839 240.426 81.6103 240.687 82.3357C240.738 82.4811 240.911 83.0066 240.951 83.6834C240.98 84.1716 240.916 84.3715 240.842 84.5144C240.693 84.8082 240.463 84.9443 239.894 85.2309C239.299 85.5311 239 85.6813 238.756 85.7586C238.186 85.9374 237.828 86.0497 237.408 85.9558Z" fill="#F2F2F2"/>
<path d="M68.7559 93.2956L68.3188 79.5073C68.3118 79.2835 68.3997 79.0656 68.5603 78.9095C68.7209 78.7533 68.9413 78.6714 69.165 78.6848L80.1064 79.341C80.3275 79.3541 80.5349 79.4598 80.6755 79.6309C80.8161 79.8018 80.8798 80.0257 80.8501 80.245L78.9992 93.9494C78.9432 94.3641 78.5724 94.6672 78.1549 94.6395L69.5015 94.0672C69.4137 94.0614 69.3301 94.0419 69.2527 94.0105C68.9669 93.8949 68.7662 93.6202 68.7559 93.2956Z" fill="#6C63FF"/>
<path d="M68.3324 78.2175C68.4855 78.2014 68.6905 78.1816 68.9367 78.1609C68.8709 78.0384 68.844 77.8935 68.8721 77.7447L69.0675 76.7119C69.1182 76.4439 69.3342 76.2384 69.6046 76.2022C71.2156 75.9868 76.7568 75.4023 80.246 76.9853C80.4643 77.0843 80.6048 77.3018 80.6117 77.5414L80.6436 78.6433C80.6476 78.7795 80.608 78.9058 80.5386 79.0105C80.8287 79.0885 81.1178 79.1709 81.4046 79.2609C81.5843 79.3172 81.713 79.4759 81.7346 79.663L81.7888 80.1323C81.8232 80.4301 81.579 80.6862 81.2799 80.6659L68.1992 79.7826C67.9015 79.7625 67.6942 79.4784 67.7658 79.1888L67.9166 78.5795C67.9651 78.3832 68.1313 78.2387 68.3324 78.2175Z" fill="#3F3D56"/>
<path d="M35.8278 54.1696L35.3907 40.3813C35.3836 40.1575 35.4716 39.9396 35.6321 39.7835C35.7927 39.6273 36.0131 39.5454 36.2368 39.5588L47.1783 40.215C47.3993 40.2282 47.6067 40.3339 47.7473 40.5049C47.8879 40.6759 47.9516 40.8997 47.922 41.1191L46.071 54.8235C46.015 55.2381 45.6442 55.5412 45.2268 55.5135L36.5733 54.9412C36.4856 54.9354 36.402 54.9159 36.3245 54.8846C36.0387 54.769 35.8381 54.4943 35.8278 54.1696Z" fill="#6C63FF"/>
<path d="M35.4043 39.0913C35.5573 39.0752 35.7624 39.0554 36.0085 39.0347C35.9427 38.9121 35.9158 38.7672 35.9439 38.6185L36.1393 37.5857C36.1901 37.3176 36.406 37.1121 36.6764 37.076C38.2875 36.8606 43.8287 36.2761 47.3179 37.8591C47.5362 37.9581 47.6766 38.1756 47.6835 38.4152L47.7155 39.517C47.7194 39.6533 47.6798 39.7796 47.6104 39.8842C47.9005 39.9622 48.1896 40.0447 48.4764 40.1347C48.6562 40.191 48.7848 40.3496 48.8064 40.5368L48.8606 41.0061C48.895 41.3039 48.6509 41.5599 48.3518 41.5397L35.271 40.6563C34.9734 40.6362 34.766 40.3522 34.8377 40.0626L34.9884 39.4532C35.0369 39.2569 35.2032 39.1125 35.4043 39.0913Z" fill="#3F3D56"/>
<path d="M207.441 96.7821L207.004 82.9938C206.997 82.77 207.085 82.5521 207.246 82.396C207.406 82.2398 207.627 82.1579 207.85 82.1713L218.792 82.8276C219.013 82.8407 219.22 82.9464 219.361 83.1175C219.501 83.2884 219.565 83.5123 219.535 83.7316L217.685 97.436C217.629 97.8507 217.258 98.1538 216.84 98.126L208.187 97.5538C208.099 97.548 208.015 97.5284 207.938 97.4971C207.652 97.3815 207.452 97.1068 207.441 96.7821Z" fill="#6C63FF"/>
<path d="M207.018 81.7041C207.171 81.688 207.376 81.6682 207.622 81.6475C207.556 81.5249 207.529 81.38 207.558 81.2313L207.753 80.1985C207.804 79.9304 208.02 79.7249 208.29 79.6888C209.901 79.4734 215.442 78.8889 218.931 80.4719C219.15 80.5709 219.29 80.7884 219.297 81.028L219.329 82.1298C219.333 82.2661 219.293 82.3924 219.224 82.497C219.514 82.575 219.803 82.6575 220.09 82.7474C220.27 82.8038 220.398 82.9624 220.42 83.1495L220.474 83.6189C220.509 83.9167 220.264 84.1727 219.965 84.1525L206.885 83.2691C206.587 83.249 206.38 82.965 206.451 82.6753L206.602 82.066C206.65 81.8697 206.817 81.7253 207.018 81.7041Z" fill="#3F3D56"/>
</g>
</svg>
