<svg width="217" height="119" viewBox="0 0 217 119" fill="none" xmlns="http://www.w3.org/2000/svg">
<mask id="mask0_48_435" style="mask-type:alpha" maskUnits="userSpaceOnUse" x="0" y="0" width="217" height="119">
<rect width="217" height="119" fill="#D9D9D9"/>
</mask>
<g mask="url(#mask0_48_435)">
<path d="M182.305 159.812H31.1899V134.157H33.5211V115.062C33.5262 110.563 35.3156 106.25 38.4969 103.069C41.6782 99.8873 45.9914 98.0978 50.4904 98.0928H163.278C167.777 98.0979 172.091 99.8873 175.272 103.069C178.453 106.25 180.243 110.563 180.248 115.062V134.157H182.305V159.812Z" fill="#E4E4E4"/>
<path d="M186.399 188.049H178.876V187.912C178.869 181.259 176.223 174.88 171.518 170.176C166.814 165.471 160.435 162.825 153.782 162.817H59.7124C53.0593 162.825 46.6808 165.471 41.9763 170.176C37.2719 174.88 34.6256 181.259 34.6181 187.912V188.049H27.0955C25.3816 188.047 23.7385 187.365 22.5266 186.153C21.3147 184.941 20.633 183.298 20.6311 181.584V139.648C18.4466 138.414 16.6699 131.711 17.824 126.358C18.5482 122.998 20.639 118.941 26.4865 118.69C32.1788 118.445 36.404 123.789 36.7814 128.934C36.9859 131.641 36.1909 134.329 34.5468 136.489H34.6181V142.471C46.9619 138.516 59.3232 136.503 71.3613 136.489C83.6798 136.501 95.9126 138.537 107.571 142.515C131.811 134.675 155.8 134.522 178.876 142.063V136.489H178.948C177.304 134.329 176.509 131.641 176.713 128.934C177.127 123.291 181.743 118.696 187.002 118.69H187.019C193.221 118.69 195.415 122.424 196.163 125.557C197.487 131.103 195.056 138.403 192.863 139.648V181.584C192.862 183.298 192.18 184.941 190.968 186.153C189.756 187.365 188.113 188.047 186.399 188.049Z" fill="#CACACA"/>
<path d="M155.896 77.1523L160.196 80.4271L165.383 82.0209C165.383 82.0209 167.527 112.181 169.459 114.113C171.391 116.045 169.648 116.097 170.037 118.607C170.425 121.116 171.368 126.261 171.368 126.261C158.328 133.164 147.085 133.349 138.054 125.272C137.939 124.772 137.997 124.248 138.221 123.786C138.444 123.324 138.818 122.953 139.281 122.733C140.962 121.841 137.732 117.678 139.106 116.982C140.479 116.286 138.547 110.249 138.547 110.249L139.815 97.6524L138.813 95.6389L141.257 83.318L145.497 81.7695L147.19 77.6888L155.896 77.1523Z" fill="#6C63FF"/>
<path d="M158.59 48.9936C158.571 49.5383 158.671 50.0806 158.884 50.5823C159.097 51.084 159.417 51.5328 159.823 51.8973C160.228 52.2618 160.708 52.533 161.229 52.6918C161.751 52.8506 162.301 52.8931 162.84 52.8164L168.901 64.597L172.278 58.5975L166.005 48.3303C165.816 47.4323 165.304 46.6349 164.566 46.0891C163.829 45.5432 162.917 45.2869 162.003 45.3687C161.089 45.4504 160.236 45.8646 159.608 46.5327C158.979 47.2008 158.616 48.0764 158.59 48.9936Z" fill="#FFB6B6"/>
<path d="M168.797 51.8755L181.797 72.0234L181.754 72.1161C181.705 72.2223 178.761 78.5801 175.908 84.4034C175.469 85.3002 175.032 86.1843 174.608 87.0309C174.425 87.3963 174.245 87.754 174.067 88.1042C172.869 90.466 171.823 92.4181 171.198 93.3454C169.816 95.4419 167.758 97.0028 165.367 97.7687L165.307 97.7842L165.249 97.7602C164.08 97.2666 163.113 96.3892 162.509 95.2725C161.905 94.1558 161.699 92.8667 161.926 91.6175C163.054 85.5923 165.566 79.9117 169.265 75.0239L171.373 72.2461L164.049 56.3237L168.797 51.8755Z" fill="#6C63FF"/>
<path d="M146.337 46.5256C146.357 47.0703 146.256 47.6126 146.043 48.1143C145.83 48.6159 145.51 49.0648 145.105 49.4293C144.699 49.7938 144.219 50.065 143.698 50.2238C143.176 50.3826 142.627 50.4251 142.087 50.3484L136.026 62.129L132.649 56.1295L138.923 45.8623C139.112 44.9643 139.623 44.1669 140.361 43.6211C141.098 43.0752 142.011 42.8189 142.925 42.9007C143.839 42.9824 144.691 43.3966 145.32 44.0647C145.949 44.7328 146.311 45.6084 146.337 46.5256Z" fill="#FFB6B6"/>
<path d="M136.13 49.4075L123.131 69.5554L123.174 69.6481C123.223 69.7543 126.166 76.1121 129.019 81.9354C129.458 82.8321 129.895 83.7162 130.319 84.5629C130.502 84.9283 130.682 85.286 130.86 85.6361C132.058 87.998 133.105 89.9501 133.729 90.8774C135.111 92.9739 137.169 94.5347 139.56 95.3007L139.62 95.3161L139.678 95.2922C140.848 94.7986 141.814 93.9212 142.418 92.8045C143.022 91.6878 143.228 90.3986 143.001 89.1495C141.874 83.1243 139.361 77.4437 135.662 72.5559L133.554 69.7781L140.878 53.8557L136.13 49.4075Z" fill="#6C63FF"/>
<path d="M151.493 75.3296C156.191 75.3296 160 71.5211 160 66.823C160 62.1249 156.191 58.3164 151.493 58.3164C146.795 58.3164 142.987 62.1249 142.987 66.823C142.987 71.5211 146.795 75.3296 151.493 75.3296Z" fill="#FFB6B6"/>
<path d="M144.565 59.5148C145.264 57.4796 148.747 56.068 154.392 55.8717C160.038 55.6754 161.47 62.3285 161.47 62.3285C165.239 65.3858 157.445 73.571 157.068 73.2762L157.238 71.7384C157.518 69.1912 158.711 67.2036 157.194 64.549L155.738 64.5657L152.975 65.097C152.803 65.1301 152.624 65.1056 152.467 65.0274C152.31 64.9492 152.184 64.8215 152.106 64.664C152.029 64.5066 152.006 64.3281 152.04 64.1561C152.074 63.9841 152.164 63.8281 152.296 63.7122L152.321 63.69L152.258 63.5928C151.285 64.0393 150.282 64.4534 149.218 64.5159C148.021 64.5863 146.712 64.1098 146.139 63.0567C145.986 62.7672 145.892 62.4499 145.864 62.1237C144.25 62.7687 143.511 64.7587 143.511 64.7587C143.511 64.7587 143.865 61.55 144.565 59.5148Z" fill="#2F2E41"/>
<path d="M152.739 97.1054V98.74H147.319V97.1054H148.998V93.1672L147.429 94.0667V92.3005L149.842 90.9292H151.049V97.1054L152.739 97.1054Z" fill="white"/>
<path d="M153.962 97.8076C153.446 97.1202 153.188 96.1256 153.188 94.8238C153.188 93.5439 153.446 92.5621 153.962 91.8782C154.236 91.5566 154.576 91.2984 154.96 91.1213C155.343 90.9442 155.761 90.8525 156.183 90.8525C156.606 90.8525 157.023 90.9442 157.407 91.1213C157.79 91.2984 158.131 91.5566 158.405 91.8782C158.92 92.5621 159.178 93.5439 159.178 94.8238C159.178 96.1255 158.92 97.1202 158.405 97.8076C158.132 98.1307 157.791 98.3903 157.408 98.5684C157.024 98.7465 156.606 98.8388 156.183 98.8388C155.76 98.8388 155.342 98.7465 154.959 98.5684C154.575 98.3903 154.235 98.1307 153.962 97.8076ZM156.94 96.7161C157.125 96.1033 157.203 95.4631 157.17 94.8238C157.203 94.197 157.125 93.5695 156.94 92.9697C156.893 92.8053 156.794 92.6608 156.657 92.5578C156.52 92.4549 156.354 92.3992 156.183 92.3992C156.012 92.3992 155.846 92.4549 155.709 92.5578C155.573 92.6608 155.473 92.8053 155.426 92.9697C155.242 93.5695 155.164 94.197 155.196 94.8238C155.163 95.4631 155.241 96.1033 155.426 96.7161C155.472 96.8817 155.571 97.0277 155.708 97.1317C155.844 97.2357 156.011 97.2921 156.183 97.2921C156.355 97.2921 156.522 97.2357 156.659 97.1317C156.795 97.0277 156.894 96.8817 156.94 96.7161Z" fill="white"/>
<path d="M88.6215 155.862C88.683 154.946 89.1716 149.881 89.1716 149.881L90.3421 139.139L92.405 110.665L92.5396 108.801L103.346 106.727L110.731 103.186L119.509 105.992L126.345 108.556C126.345 108.556 126.356 109.653 126.409 110.978C126.479 112.714 126.602 114.841 126.895 115.394C127.383 116.371 127.261 121.618 127.261 121.618C127.261 121.618 127.746 132.292 128.358 133.463C128.969 134.633 129.092 137.07 128.908 137.559C128.724 138.048 129.519 150.867 129.519 150.867C129.519 150.867 131.562 173.552 130.281 176.973C128.999 180.393 124.156 178.153 124.156 178.153C124.156 178.153 124.39 177.24 122.986 176.81C121.581 176.379 117.303 144.213 117.303 144.213C117.303 144.213 116.507 137.618 115.776 135.727C115.044 133.837 114.371 128.526 114.371 128.526C114.371 128.526 109.853 119.736 109.795 117.782C109.795 117.782 109.204 115.953 108.645 117.966C108.086 119.979 106.438 124.801 106.438 124.801L104.832 130.724L102.942 139.572L101.719 147.022C101.719 147.022 99.887 156.909 99.5943 157.336C99.3017 157.764 99.5943 166.797 99.5943 166.797C99.5943 166.797 98.1781 174.489 96.1767 175.832C94.1752 177.175 88.8726 175.854 88.8726 175.854C88.8726 175.854 88.5601 156.778 88.6215 155.862Z" fill="#2F2E41"/>
<path d="M93.2316 79.0984L95.6338 85.3887L92.6697 88.4563L93.9749 89.6238L93.0122 91.2748L90.5014 108.577L104.266 113.114L108.901 108.063L112.555 113.114L128.482 109.731L124.421 87.6678V86.2255L123.274 83.4404V77.5442L128.541 59.9932L117.264 57.2408L112.942 54.2673L111.543 58.4492L105.588 57.5282L105.433 54.3869L100.877 58.1286L94.8029 59.08L90.2091 59.9932L89.6238 61.265L90.7941 61.0105L92.8425 77.5568L93.2316 79.0984Z" fill="#2F2E41"/>
<path d="M102.494 62.1145L105.433 54.4048L112.942 54.2673L115.433 62.1145L124.388 112.141C124.388 112.141 96.9532 119.781 97.2315 110.597C97.5241 100.941 98.8443 88.1149 98.8443 88.1149L102.494 62.1145Z" fill="#3F3D56"/>
<path d="M109.02 52.2484C113.905 52.2484 117.865 48.2884 117.865 43.4035C117.865 38.5186 113.905 34.5586 109.02 34.5586C104.135 34.5586 100.175 38.5186 100.175 43.4035C100.175 48.2884 104.135 52.2484 109.02 52.2484Z" fill="#A0616A"/>
<path d="M99.6532 36.9875C101.093 35.4202 102.894 32.5513 108.35 31.3466C115.091 29.8579 118.276 35.9475 116.576 36.0474C121.547 37.5527 118.354 47.8395 116.929 46.9768C116.917 46.9683 116.905 46.9591 116.894 46.9493C116.127 46.3849 115.484 45.6702 115.003 44.8487C114.522 44.0273 114.214 43.1165 114.097 42.1719L113.826 39.7376C113.788 41.7182 111.763 41.9802 109.695 41.2508C109.817 40.8165 110.051 40.4217 110.372 40.1052C110.694 39.7887 111.092 39.5614 111.528 39.4459C110.263 40.6129 108.616 41.4477 106.316 41.7137C106.599 40.6208 107.161 39.8164 108.042 39.3396L107.96 39.2594C107.117 39.9007 106.239 40.5172 105.226 40.8076C104.085 41.1344 102.719 40.9576 101.938 40.0652C101.728 39.819 101.569 39.533 101.471 39.2244C101.64 40.7929 100.588 42.5834 99.7707 42.276C99.0909 42.1439 98.6946 38.0309 99.6532 36.9875Z" fill="#2F2E41"/>
<path d="M119.925 42.916L127.969 56.4493L133.915 53.6412C133.915 53.6412 123.67 40.8455 123.344 40.4774C123.483 39.8555 123.431 39.2057 123.194 38.6142C122.956 38.0226 122.544 37.5171 122.013 37.1645C121.482 36.812 120.857 36.6289 120.219 36.6396C119.582 36.6503 118.963 36.8542 118.444 37.2244C117.925 37.5946 117.531 38.1137 117.313 38.7128C117.096 39.312 117.065 39.9631 117.226 40.58C117.386 41.1969 117.73 41.7506 118.212 42.1677C118.694 42.5848 119.292 42.8457 119.925 42.916Z" fill="#A0616A"/>
<path d="M123.82 76.5467L136.304 67.5532C137.118 66.9664 137.801 66.2162 138.309 65.3504C138.817 64.4847 139.139 63.5224 139.254 62.5253C139.369 61.5281 139.275 60.5178 138.977 59.5592C138.679 58.6006 138.185 57.7146 137.525 56.958L128.541 46.6516L124.627 51.9554L127.643 58.2633L121.802 59.8036L123.82 76.5467Z" fill="#2F2E41"/>
<path d="M102.393 44.1882L94.3487 57.7215L88.4032 54.9134C88.4032 54.9134 98.648 42.1177 98.9744 41.7496C98.8346 41.1277 98.887 40.478 99.1245 39.8864C99.362 39.2949 99.7735 38.7894 100.305 38.4368C100.836 38.0842 101.461 37.9011 102.099 37.9118C102.736 37.9225 103.355 38.1265 103.874 38.4967C104.393 38.8669 104.787 39.3859 105.005 39.9851C105.222 40.5843 105.253 41.2354 105.092 41.8523C104.932 42.4692 104.588 43.0228 104.106 43.4399C103.624 43.857 103.026 44.118 102.393 44.1882Z" fill="#A0616A"/>
<path d="M98.4981 77.8189L86.0141 68.8254C85.1996 68.2386 84.5165 67.4884 84.0085 66.6226C83.5005 65.7569 83.1788 64.7946 83.0638 63.7975C82.9489 62.8003 83.0433 61.79 83.341 60.8314C83.6387 59.8728 84.1332 58.9868 84.7928 58.2302L93.7773 47.9238L97.6913 53.2276L94.6745 59.5355L100.516 61.0758L98.4981 77.8189Z" fill="#2F2E41"/>
<path d="M111.129 75.3008C111.411 75.6342 111.559 76.0602 111.546 76.4967C111.555 76.9288 111.416 77.351 111.151 77.6924C110.864 78.0453 110.487 78.3129 110.059 78.4657C109.025 78.8241 107.901 78.8241 106.867 78.4657C106.439 78.3129 106.061 78.0454 105.775 77.6924C105.51 77.351 105.371 76.9288 105.38 76.4967C105.366 76.0552 105.514 75.6238 105.797 75.2845C106.107 74.9405 106.518 74.7041 106.971 74.6097C106.574 74.4864 106.22 74.2524 105.951 73.935C105.703 73.6343 105.571 73.255 105.578 72.8655C105.57 72.4565 105.704 72.0574 105.956 71.7355C106.227 71.4003 106.583 71.1445 106.987 70.9951C107.941 70.6514 108.985 70.6514 109.938 70.9951C110.342 71.1446 110.699 71.4004 110.97 71.7355C111.222 72.0574 111.356 72.4565 111.348 72.8655C111.355 73.2626 111.221 73.6493 110.97 73.957C110.709 74.2736 110.359 74.5047 109.966 74.6207C110.414 74.7232 110.82 74.9606 111.129 75.3008ZM109.319 76.9683C109.424 76.9004 109.51 76.8059 109.568 76.6942C109.626 76.5826 109.653 76.4577 109.648 76.3321C109.651 76.205 109.623 76.0791 109.568 75.9646C109.513 75.8502 109.431 75.7505 109.33 75.6739C109.097 75.4487 108.786 75.3228 108.463 75.3228C108.139 75.3228 107.829 75.4487 107.596 75.6739C107.495 75.7505 107.413 75.8501 107.358 75.9646C107.302 76.079 107.275 76.205 107.278 76.3321C107.272 76.4577 107.3 76.5826 107.358 76.6942C107.415 76.8059 107.501 76.9004 107.607 76.9683C107.869 77.1123 108.164 77.1878 108.463 77.1878C108.762 77.1878 109.056 77.1123 109.319 76.9683ZM107.766 72.487C107.675 72.5609 107.602 72.6558 107.555 72.7638C107.509 72.8717 107.489 72.9894 107.497 73.1068C107.497 73.5895 107.819 73.9113 108.463 74.0722C109.106 73.9115 109.428 73.5897 109.428 73.1068C109.437 72.9894 109.417 72.8717 109.37 72.7638C109.323 72.6558 109.251 72.5609 109.159 72.487C108.951 72.3544 108.71 72.284 108.463 72.284C108.216 72.284 107.974 72.3544 107.766 72.487Z" fill="white"/>
<path d="M12.2488 49.2823C12.4406 49.5659 12.6923 49.8039 12.986 49.9797C13.2798 50.1555 13.6085 50.2648 13.9491 50.2998C14.2897 50.3348 14.6338 50.2947 14.9571 50.1824C15.2805 50.07 15.5754 49.8881 15.8208 49.6495L23.257 53.3855L22.7504 49.0908L15.7666 46.2014C15.3383 45.8156 14.7835 45.6003 14.2071 45.5962C13.6308 45.5922 13.0729 45.7997 12.6393 46.1795C12.2057 46.5592 11.9265 47.0848 11.8545 47.6567C11.7826 48.2285 11.9228 48.8069 12.2488 49.2823Z" fill="#9E616A"/>
<path d="M43.012 66.6171L39.3095 64.0637C39.3095 64.0637 35.0696 63.7761 34.4319 62.4282C33.7943 61.0803 33.6868 61.5335 33.007 61.3722C32.3272 61.211 31.9764 59.1822 30.8369 59.4215C28.2731 59.96 16.2159 51.9929 17.5172 50.9971L18.4845 46.9185C19.5066 47.3 20.5722 47.5528 21.6568 47.6708C23.2967 47.8204 27.1604 49.6941 27.7327 50.3085C28.305 50.9229 29.3189 50.6847 30.6784 51.0071C32.038 51.3295 32.5138 53.5165 34.7688 52.9345C37.9415 52.1157 54.3788 59.912 56.1572 60.6398C58.1089 61.4385 59.4719 63.8193 59.4719 63.8193L58.9345 66.0852L43.012 66.6171Z" fill="#6C63FF"/>
<path d="M63.2282 145.421L57.8472 120.31L49.4446 148.21L36.1395 174.668L36.069 174.808L31.8544 172.539C31.2596 161.796 32.6723 151.729 37.8391 142.926L40.2857 118.765C40.3607 117.939 42.1857 98.5576 47.9646 95.1205L49.657 91.2615L66.4895 87.1042L66.5508 87.1732C68.1694 88.9925 69.2386 91.2337 69.6342 93.6364L74.6639 124.107L74.6668 124.124L73.3181 145.38L75.1629 176.74H68.4879C64.3586 168.97 62.6053 158.531 63.2282 145.421Z" fill="#2F2E41"/>
<path d="M77.7184 40.1045C77.975 40.3312 78.1787 40.6113 78.3153 40.9253C78.4519 41.2392 78.5179 41.5793 78.5088 41.9215C78.4998 42.2637 78.4158 42.5998 78.2627 42.9061C78.1097 43.2123 77.8914 43.4813 77.6232 43.6941L80.3719 51.5489L76.1779 50.4942L74.2107 43.1968C73.8832 42.7225 73.7411 42.1446 73.8112 41.5725C73.8813 41.0004 74.1588 40.4739 74.5911 40.0927C75.0235 39.7116 75.5806 39.5022 76.157 39.5044C76.7334 39.5066 77.289 39.7201 77.7184 40.1045Z" fill="#9E616A"/>
<path d="M44.6954 99.4365C44.2421 99.4365 43.9846 99.3476 43.8849 99.157C43.7386 98.8772 43.9925 98.5117 44.2864 98.0883C44.4915 97.7933 45.0903 97.2067 44.7958 97.1708C40.3306 96.6255 42.474 69.0955 44.4091 65.4564C44.8023 64.7171 44.3863 63.5826 44.8291 62.3279C46.0386 58.9011 47.6895 57.8479 50.9784 55.7501C51.2453 55.5798 51.5233 55.4019 51.8124 55.2165C52.1863 54.9762 52.1654 54.1796 52.1434 53.3359C52.119 52.3984 52.0936 51.4287 52.5529 50.8227L52.5828 50.7832L52.631 50.772C53.742 50.5152 57.4786 50.0384 59.6914 50.7755L59.722 50.7859L59.7448 50.8086C60.2705 51.3342 60.3184 52.3525 60.3647 53.337C60.4026 54.1454 60.4385 54.9086 60.7359 55.2402C63.0096 57.7745 65.5882 57.7251 65.6143 57.7246L65.7421 57.7209L65.7548 57.8479C67.3488 60.882 66.1007 72.1499 67.2087 79.1491C68.3344 86.26 77.9478 92.3132 69.7161 93.3879C69.7338 93.4152 69.7437 93.4469 69.7447 93.4795C69.7457 93.512 69.7377 93.5443 69.7217 93.5726C69.2244 94.5019 46.404 99.4365 44.6954 99.4365Z" fill="#6C63FF"/>
<path d="M81.9081 64.7624L77.3392 67.0287C68.5351 70.4107 63.9339 69.5869 61.6222 68.3011C59.1556 66.9293 58.728 64.826 58.7112 64.7373L58.7097 64.6944L59.2733 60.2301C59.3449 59.663 59.5362 59.1177 59.8346 58.6302C60.1329 58.1427 60.5315 57.7241 61.0039 57.4024C61.4763 57.0806 62.0117 56.8629 62.5745 56.7637C63.1374 56.6645 63.715 56.6861 64.2689 56.8271L74.7803 59.5021L74.5886 54.3996L75.0043 52.5623L74.2376 50.3291L74.5517 45.844L78.3222 44.9211L82.2772 52.0051L81.5667 53.9602L82.2362 54.9335L82.2348 54.9786L81.9081 64.7624Z" fill="#6C63FF"/>
<path d="M58.9872 68.3418V69.8777L55.5865 76.1526H53.3924L56.7822 69.9764H53.1839V68.3418L58.9872 68.3418Z" fill="white"/>
<path d="M145.922 30.064C148.448 24.693 146.404 18.4143 142.753 16.6974C139.103 14.9806 132.963 17.4101 130.437 22.7811C128.099 27.7527 129.84 33.5757 132.838 35.6971C132.788 35.7119 132.741 35.7363 132.7 35.7688L131.979 36.3621C131.924 36.4074 131.882 36.4659 131.856 36.5321C131.83 36.5984 131.822 36.6701 131.831 36.7406C131.841 36.8111 131.868 36.878 131.911 36.9349C131.954 36.9918 132.01 37.0368 132.075 37.0657L133.892 37.8731C133.957 37.902 134.028 37.9138 134.099 37.9074C134.17 37.9009 134.238 37.8765 134.297 37.8364C134.356 37.7963 134.403 37.7418 134.435 37.6782C134.467 37.6145 134.482 37.5438 134.479 37.4728L134.436 36.5405C134.434 36.508 134.428 36.4759 134.418 36.4449C137.968 37.4203 143.578 35.0464 145.922 30.064Z" fill="#CCCCCC"/>
<path d="M143.852 22.3611C144.426 24.0249 144.339 25.8452 143.609 27.4465C142.879 29.0477 141.562 30.3077 139.93 30.9662C139.558 31.1209 139.855 31.6724 140.224 31.5187C141.973 30.7901 143.382 29.4273 144.168 27.7035C144.955 25.9798 145.06 24.0225 144.464 22.2242C144.337 21.8449 143.725 21.979 143.852 22.3611Z" fill="white"/>
<path d="M190.243 48.0609C195.355 45.044 197.2 38.7039 195.149 35.23C193.099 31.7561 186.657 30.3075 181.545 33.3244C176.814 36.1169 174.975 41.9101 176.259 45.3512C176.209 45.3351 176.156 45.3287 176.104 45.3323L175.174 45.4172C175.104 45.4236 175.036 45.4481 174.977 45.4883C174.918 45.5284 174.871 45.5829 174.839 45.6466C174.807 45.7102 174.792 45.781 174.795 45.852C174.799 45.9231 174.82 45.9921 174.858 46.0526L175.905 47.7428C175.942 47.8033 175.994 47.8532 176.057 47.8877C176.119 47.9223 176.189 47.9404 176.26 47.9404C176.331 47.9403 176.401 47.922 176.463 47.8873C176.525 47.8526 176.577 47.8026 176.615 47.7421L177.105 46.9476C177.121 46.9196 177.134 46.8897 177.144 46.8586C179.528 49.663 185.501 50.8595 190.243 48.0609Z" fill="#6C63FF"/>
<path d="M192.87 40.5301C192.407 42.2279 191.31 43.6833 189.805 44.5958C188.301 45.5084 186.503 45.8084 184.784 45.4339C184.389 45.3525 184.324 45.9754 184.716 46.0563C186.571 46.4387 188.503 46.1054 190.123 45.1234C191.743 44.1413 192.932 42.583 193.452 40.7609C193.561 40.3765 192.98 40.1428 192.87 40.5301Z" fill="white"/>
<path d="M157.707 23.3917C157.063 21.9746 156.764 20.4252 156.835 18.8703C156.905 17.3155 157.343 15.7995 158.113 14.4466C158.333 14.0654 158.551 13.6041 159.032 13.5308C159.214 13.4977 159.401 13.5273 159.564 13.6146C159.727 13.702 159.855 13.842 159.928 14.0117C159.992 14.2376 159.981 14.4783 159.895 14.6967C159.809 14.9152 159.653 15.0992 159.452 15.2206C159.251 15.3419 159.016 15.3937 158.782 15.368C158.549 15.3423 158.33 15.2405 158.161 15.0784C157.249 14.3435 157.364 13.0503 157.452 12.0092C157.652 9.63716 157.649 7.14684 156.64 4.93907C155.706 2.8964 153.8 1.18783 151.498 1.00123C151.095 0.968597 151.072 1.59441 151.473 1.62689C153.756 1.81196 155.543 3.69293 156.302 5.75157C156.73 6.99098 156.943 8.29461 156.932 9.60597C156.939 10.2791 156.908 10.9521 156.856 11.6231C156.777 12.2771 156.757 12.9369 156.795 13.5946C156.902 14.6679 157.551 15.8187 158.712 15.9902C159.795 16.1502 160.852 15.0176 160.559 13.9414C160.489 13.7087 160.361 13.4972 160.189 13.3258C160.016 13.1544 159.804 13.0285 159.571 12.9594C159.338 12.8903 159.091 12.8801 158.853 12.9297C158.615 12.9794 158.393 13.0873 158.207 13.2439C157.8 13.5834 157.536 14.1665 157.304 14.6324C156.604 16.0343 156.227 17.5753 156.201 19.1422C156.175 20.7091 156.501 22.2618 157.155 23.686C157.326 24.0508 157.878 23.7555 157.707 23.3917Z" fill="#CCCCCC"/>
<path d="M63.1934 52.5767C62.9576 52.1461 62.5517 50.9147 62.0964 50.9312C61.6307 50.9516 61.1643 50.912 60.7087 50.8133C60.6593 50.805 60.6099 50.7941 60.5633 50.7831C58.64 50.3031 56.668 50.0455 54.686 50.0152C53.0871 49.9932 51.3319 50.1852 50.2157 51.3289C49.0994 52.4725 49.264 54.8311 50.8026 55.2672C45.6608 56.1574 40.3754 54.9859 36.0915 52.0063C33.3681 50.092 31.1851 47.5277 28.8758 45.1307C26.5666 42.7309 24.0215 40.4245 20.9087 39.2506C17.7932 38.0741 13.9838 38.2386 11.4743 40.4299C8.41363 43.1012 8.17777 47.6977 8.17503 51.7594C8.17229 53.2788 8.64675 52.9579 9.98786 53.6737C11.233 54.3374 12.5412 55.7032 13.3009 54.5157C14.0606 53.3282 14.1949 51.8609 14.3513 50.4595C14.5048 49.058 14.7325 47.5825 15.6211 46.4882C17.1487 44.6069 20.1573 44.5876 22.2663 45.7807C24.3753 46.9737 25.7932 49.0608 27.1343 51.0793C28.4754 53.0951 29.8906 55.1876 31.9969 56.3889C34.7641 57.9658 38.2389 57.7327 41.1268 59.0766C42.9616 59.9322 44.4453 61.3666 45.9674 62.6967C47.4923 64.0269 49.1625 65.3077 51.1399 65.7382C53.1145 66.1716 55.4594 65.5188 56.4303 63.7444C57.3052 62.14 56.8773 60.0858 57.6562 58.4293C58.2568 57.1513 59.4827 56.3038 60.588 55.4207C61.0433 55.056 61.1612 56.3121 61.5479 55.8678C62.6641 55.6456 63.7118 53.5229 63.1934 52.5767Z" fill="#3F3D56"/>
<path d="M55.5035 50.3075C60.2895 50.3075 64.1694 46.4276 64.1694 41.6415C64.1694 36.8555 60.2895 32.9756 55.5035 32.9756C50.7174 32.9756 46.8375 36.8555 46.8375 41.6415C46.8375 46.4276 50.7174 50.3075 55.5035 50.3075Z" fill="#2F2E41"/>
<path d="M56.2011 51.0227C59.6392 50.9253 62.3474 48.0592 62.25 44.6211C62.1526 41.1829 59.2864 38.4747 55.8483 38.5722C52.4102 38.6696 49.702 41.5357 49.7994 44.9738C49.8968 48.412 52.7629 51.1201 56.2011 51.0227Z" fill="#9E616A"/>
<path d="M56.0849 35.2996L53.5603 35.3712C51.9694 35.4175 50.4618 36.0932 49.3684 37.2499C48.2751 38.4066 47.6853 39.9498 47.7285 41.5409L47.7301 41.5968L47.7761 41.6256C49.1483 42.5335 50.768 42.9944 52.4126 42.9448L52.5546 42.9408L53.9495 42.8776C54.1841 42.2734 54.2626 41.6198 54.1776 40.9772C54.3883 41.5863 54.5527 42.2104 54.6695 42.8443L60.9285 42.5593C61.2927 42.5413 61.6354 42.3816 61.8835 42.1145C62.1317 41.8473 62.2656 41.4938 62.2567 41.1292C62.2098 39.5383 61.5336 38.0309 60.3765 36.938C59.2194 35.8451 57.676 35.2558 56.0849 35.2996Z" fill="#2F2E41"/>
<path d="M51.0541 33.7373C50.4843 34.4399 49.5693 34.7327 48.7472 35.1133C47.2967 35.7992 46.0355 36.8287 45.0728 38.1123C44.1101 39.3959 43.475 40.895 43.2226 42.4795C43.0289 43.7698 43.0967 45.0979 42.7687 46.3598C42.4429 47.6215 41.5832 48.8748 40.3055 49.1283C39.441 49.3013 38.5605 48.9906 37.734 48.6825C37.2794 48.5146 36.8249 48.346 36.3703 48.1767C36.8057 46.9871 37.2405 45.7976 37.6745 44.6081C36.9548 45.7395 36.1103 46.7863 35.1567 47.729C33.5276 47.1252 31.8971 46.5215 30.2652 45.9178C34.2353 45.8203 33.4487 41.986 34.2273 38.0944C34.6552 35.9559 38.7712 34.3995 39.5289 32.355C39.9383 31.2462 40.6567 30.2778 41.5992 29.5645C42.5417 28.8512 43.6689 28.4228 44.8472 28.3301C46.0256 28.2374 47.2059 28.4842 48.2483 29.0413C49.2908 29.5985 50.1518 30.4426 50.7295 31.4738C51.5538 31.7754 51.6133 33.0435 51.0541 33.7373Z" fill="#2F2E41"/>
<path d="M51.4511 36.3142C53.2332 36.3142 54.678 34.8694 54.678 33.0873C54.678 31.3051 53.2332 29.8604 51.4511 29.8604C49.6689 29.8604 48.2242 31.3051 48.2242 33.0873C48.2242 34.8694 49.6689 36.3142 51.4511 36.3142Z" fill="#2F2E41"/>
</g>
</svg>
