<svg width="176" height="53" viewBox="0 0 176 53" fill="none" xmlns="http://www.w3.org/2000/svg">
<path d="M75.2196 27.6664C75.0592 25.762 74.1927 23.9863 72.7903 22.6879C71.3879 21.3895 69.5508 20.6622 67.6397 20.6486C65.6105 20.6552 63.6667 21.4662 62.2346 22.9038C60.8025 24.3414 59.999 26.2883 60.0003 28.3176C59.9931 29.1427 60.1232 29.9632 60.3852 30.7457C60.9231 32.2476 61.9051 33.5505 63.2008 34.4813C64.4965 35.412 66.0446 35.9267 67.6397 35.957C72.1701 35.957 74.5979 32.4335 75.1308 31.012L72.7337 30.2128C72.2869 31.4859 70.3044 33.3808 67.6397 33.3808C66.67 33.3785 65.7248 33.0754 64.9345 32.5133C64.1443 31.9511 63.5479 31.1576 63.2277 30.2422L75.2196 28.0807C75.2346 27.943 75.2346 27.8041 75.2196 27.6664ZM62.8437 28.0215C62.8643 27.8346 62.8742 27.6467 62.8735 27.4587C62.9783 26.3331 63.4848 25.2828 64.3004 24.4999C65.116 23.717 66.1861 23.2538 67.315 23.195C68.3336 23.1774 69.3327 23.4753 70.1753 24.0478C71.018 24.6203 71.6629 25.4394 72.0217 26.3929L62.8437 28.0215ZM83.1552 36.1051C87.0045 36.1051 88.87 34.2397 88.87 31.7821C88.87 26.9562 79.6612 27.4295 79.6612 25.1495C79.6612 23.9651 80.9049 23.3136 82.6815 23.3136C85.1686 23.3136 86.9751 25.1197 86.9751 25.1197L88.8405 23.4616C88.0514 22.629 87.101 21.966 86.0472 21.5129C84.9934 21.0599 83.8584 20.8263 82.7113 20.8265C78.8917 20.8265 77.0263 22.6919 77.0263 25.1495C77.0263 29.9753 86.2351 29.502 86.2351 31.7821C86.2351 32.9665 84.9914 33.618 83.2148 33.618C80.7277 33.618 78.9212 31.8118 78.9212 31.8118L77.0555 33.4401C77.8364 34.2773 78.7804 34.9457 79.8295 35.404C80.8786 35.8623 82.0104 36.1009 83.1552 36.1051ZM98.345 36.1051C99.6688 36.1023 100.969 35.7539 102.117 35.0943C103.264 34.4347 104.22 33.4868 104.889 32.3445L102.372 31.1306C101.424 32.5223 99.914 33.4401 98.3447 33.4401C95.591 33.4401 93.5189 31.3081 93.5189 28.4653C93.5189 25.6225 95.5916 23.4905 98.3447 23.4905C99.914 23.4905 101.424 24.4083 102.372 25.8001L104.889 24.5862C104.22 23.4438 103.264 22.496 102.116 21.8364C100.969 21.1769 99.6685 20.8285 98.3447 20.8259C97.3415 20.8258 96.348 21.0234 95.4212 21.4073C94.4943 21.7913 93.6521 22.354 92.9427 23.0634C92.2333 23.7729 91.6707 24.6151 91.2868 25.542C90.903 26.4689 90.7055 27.4624 90.7056 28.4656C90.7055 29.4688 90.903 30.4623 91.2869 31.3891C91.6708 32.316 92.2335 33.1582 92.9428 33.8676C93.6522 34.577 94.4944 35.1397 95.4212 35.5236C96.3481 35.9075 97.3415 36.1051 98.3447 36.1051H98.345ZM115.104 20.8265C114.268 20.8381 113.444 21.0292 112.688 21.3868C111.932 21.7444 111.261 22.2602 110.722 22.8992V21.0633H107.909V35.8685H110.722V27.459C110.722 25.1495 112.35 23.4321 114.512 23.4321C115.327 23.4908 116.103 23.8017 116.732 24.3216L117.591 21.4494C116.829 21.0325 115.973 20.8181 115.104 20.8265H115.104ZM125.616 36.1051C127.64 36.1001 129.58 35.2937 131.012 33.8621C132.443 32.4306 133.25 30.4904 133.255 28.4659C133.25 26.4414 132.443 24.5012 131.012 23.0697C129.58 21.6381 127.64 20.8317 125.616 20.8268C124.612 20.8267 123.619 21.0242 122.692 21.4081C121.765 21.792 120.923 22.3546 120.214 23.064C119.504 23.7734 118.942 24.6156 118.558 25.5424C118.174 26.4693 117.976 27.4627 117.976 28.4659C117.976 29.4691 118.174 30.4625 118.558 31.3893C118.941 32.3162 119.504 33.1583 120.214 33.8677C120.923 34.5771 121.765 35.1398 122.692 35.5237C123.619 35.9075 124.612 36.1051 125.616 36.1051ZM125.705 33.4401C122.951 33.4401 120.879 31.3081 120.879 28.4653C120.879 25.6225 122.952 23.4607 125.705 23.4607C128.429 23.4607 130.531 25.6222 130.531 28.4653C130.531 31.3084 128.428 33.4401 125.704 33.4401H125.705ZM154.367 21.0633L150.606 31.8413L146.816 21.0633H144.299L140.539 31.8413L136.778 21.0633H133.965L139.147 35.8685H141.96L145.572 24.8835L149.185 35.8682H151.998L157.179 21.063L154.367 21.0633ZM160.252 31.6272H162.367L162.715 16H159.902L160.252 31.6272ZM174.442 31.9596C174.442 32.2852 173.553 33.4994 172.251 33.4994C171.155 33.4994 170.06 32.5816 170.06 31.0123V23.6097H174.087V21.0633H170.06V16.0587L167.247 16.2374V21.0633H165.144V23.6097H167.247V31.7821C167.247 34.8024 169.26 36.1051 171.688 36.1051C174.205 36.1051 175.715 34.1804 175.715 34.1804L174.442 31.9596Z" fill="#F0F8FF"/>
<path d="M160.241 32.733H162.37L162.883 36.2165H159.748L160.241 32.733Z" fill="#2E86DE"/>
<path d="M19.5592 52.1541C18.2353 52.1545 16.9146 52.0214 15.6174 51.7568C13.1156 51.2444 10.7392 50.2444 8.62373 48.8139C5.479 46.6912 3.01735 43.7021 1.53704 40.2087C1.03691 39.0255 0.655154 37.7957 0.397362 36.5373C-0.132454 33.9362 -0.132454 31.2549 0.397362 28.6538C0.909884 26.1519 1.91006 23.7754 3.34081 21.66C5.46352 18.5153 8.45268 16.0536 11.9461 14.5733C13.1293 14.0732 14.3591 13.6914 15.6175 13.4336C16.9147 13.1693 18.2353 13.0363 19.5592 13.0368C20.0786 13.0368 20.6032 13.0574 21.1182 13.098C21.0009 13.8755 20.9421 14.6608 20.9422 15.4471C20.9422 24.0095 27.8905 30.9755 36.4312 30.9755C37.3028 30.9757 38.1729 30.9028 39.0323 30.7577C39.089 31.3649 39.117 31.9834 39.117 32.5957C39.1174 33.9197 38.9842 35.2403 38.7197 36.5375C38.2073 39.0393 37.2073 41.4158 35.7768 43.5312C33.654 46.6758 30.6648 49.1372 27.1715 50.6174C25.9883 51.1175 24.7585 51.4993 23.5 51.7571C22.2031 52.0215 20.8828 52.1545 19.5592 52.1541Z" fill="#2E86DE"/>
<path d="M38.9906 30.8042C38.571 26.2225 36.5433 21.9372 33.2668 18.7073C29.9902 15.4774 25.6763 13.5114 21.0891 13.1575C21.6337 9.5639 23.4258 6.27658 26.1512 3.87177C28.8766 1.46696 32.3614 0.098085 35.9949 0.00507208C39.6284 -0.0879409 43.1787 1.10084 46.0236 3.36306C48.8684 5.62528 50.8264 8.8166 51.5542 12.3777C51.7635 13.4069 51.8689 14.4546 51.8687 15.5049C51.8788 19.1663 50.5905 22.7127 48.2326 25.5138C45.8748 28.315 42.6002 30.1895 38.9907 30.8042H38.9906Z" fill="#A8D4FF"/>
</svg>
