<svg width="27" height="32" viewBox="0 0 27 32" fill="none" xmlns="http://www.w3.org/2000/svg">
<path d="M10.2651 27.362C11.059 27.194 15.8971 27.194 16.6911 27.362C17.3698 27.5187 18.1038 27.885 18.1038 28.6849C18.0643 29.4463 17.6176 30.1213 17.0005 30.55C16.2002 31.1738 15.261 31.569 14.2791 31.7113C13.7361 31.7817 13.2026 31.7833 12.6786 31.7113C11.6952 31.569 10.756 31.1738 9.95725 30.5484C9.33848 30.1213 8.89177 29.4463 8.85231 28.6849C8.85231 27.885 9.5863 27.5187 10.2651 27.362ZM13.5718 0C16.8756 0 20.2504 1.56762 22.2551 4.16858C23.5557 5.84338 24.1524 7.51657 24.1524 10.1175V10.7942C24.1524 12.7889 24.6796 13.9646 25.8398 15.3195C26.719 16.3176 27 17.5989 27 18.989C27 20.3774 26.5438 21.6955 25.6299 22.7657C24.4334 24.0485 22.746 24.8675 21.0239 25.0099C18.5283 25.2227 16.0311 25.4018 13.5008 25.4018C10.9689 25.4018 8.47331 25.2946 5.97773 25.0099C4.25402 24.8675 2.56662 24.0485 1.3717 22.7657C0.457761 21.6955 0 20.3774 0 18.989C0 17.5989 0.282549 16.3176 1.16019 15.3195C2.35668 13.9646 2.84917 12.7889 2.84917 10.7942V10.1175C2.84917 7.44619 3.51529 5.69941 4.88699 3.98943C6.9264 1.49564 10.1954 0 13.4298 0H13.5718Z" fill="white"/>
</svg>
